<svg width="124" height="16" fill="none" xmlns="http://www.w3.org/2000/svg"><mask id="a" style="mask-type:alpha" maskUnits="userSpaceOnUse" x="0" y="1" width="122" height="14"><path d="M4.007 1.152h1.847l4.001 11.016H8.06L7.054 9.19H2.81l-1.015 2.978H0L4.01 1.152h-.003zm-.742 6.665h3.32l-1.64-4.84h-.031l-1.65 4.84zm7.511-3.682h1.65v1.382h.038c.48-.954 1.368-1.536 2.512-1.536 2.046 0 3.359 1.602 3.359 4.17v.008c0 2.558-1.321 4.169-3.337 4.169-1.139 0-2.062-.58-2.534-1.511h-.039v4.023h-1.649V4.135zm5.88 4.024V8.15c0-1.71-.817-2.757-2.107-2.757-1.29 0-2.13 1.083-2.13 2.757v.009c0 1.665.886 2.749 2.13 2.749 1.243 0 2.107-1.054 2.107-2.75zm2.862-4.024h1.649v1.382h.038c.48-.954 1.368-1.536 2.513-1.536 2.046 0 3.358 1.602 3.358 4.17v.008c0 2.558-1.32 4.169-3.336 4.169-1.14 0-2.063-.58-2.535-1.511h-.038v4.023h-1.65V4.135zm5.879 4.024V8.15c0-1.71-.816-2.757-2.107-2.757-1.29 0-2.129 1.083-2.129 2.757v.009c0 1.665.886 2.749 2.13 2.749 1.243 0 2.106-1.054 2.106-2.75zm2.923-7.01h1.649v11.016h-1.65V1.15zm2.892 7.032v-.009c0-2.512 1.451-4.191 3.704-4.191S38.55 5.6 38.55 8.012v.557h-5.688c.03 1.52.863 2.405 2.175 2.405.976 0 1.627-.505 1.834-1.106l.022-.06h1.566l-.016.082c-.26 1.274-1.498 2.435-3.444 2.435-2.36 0-3.787-1.61-3.787-4.144zm1.672-.778h4.031c-.138-1.39-.915-2.068-1.994-2.068-1.078 0-1.894.725-2.037 2.068zm10.12-6.254h1.71v11.016h-1.71V1.15zm3.45 2.986h1.648V5.35h.039c.42-.817 1.244-1.368 2.46-1.368 1.765 0 2.78 1.139 2.78 2.986v5.201h-1.658V7.282c0-1.205-.565-1.886-1.71-1.886-1.144 0-1.908.84-1.908 2.092v4.68h-1.649V4.135h-.003zm8.884 5.918V5.448h-1.153V4.135h1.153V2.042h1.688v2.093h1.503v1.313h-1.503v4.506c0 .816.366 1.061 1.061 1.061.177 0 .32-.016.444-.03v1.274a5.55 5.55 0 0 1-.84.069c-1.589 0-2.353-.673-2.353-2.275zm3.908-1.87v-.008c0-2.512 1.45-4.191 3.703-4.191s3.634 1.618 3.634 4.031v.557h-5.688c.03 1.52.863 2.405 2.175 2.405.976 0 1.627-.505 1.834-1.106l.022-.06h1.566l-.016.082c-.26 1.274-1.498 2.435-3.444 2.435-2.36 0-3.786-1.61-3.786-4.145zm1.67-.777h4.032c-.138-1.39-.915-2.068-1.993-2.068-1.079 0-1.895.725-2.038 2.068zm6.986-6.254h1.648v11.016h-1.648V1.152zm3.311 0h1.65v11.016h-1.65V1.152zm3.183.802c0-.527.427-.954.962-.954.535 0 .962.427.962.954 0 .527-.419.946-.962.946a.95.95 0 0 1-.963-.946zm.137 2.184h1.65v8.033h-1.65V4.138zm3.166 8.68l-.008-.068h1.635l.03.06c.22.513.916.864 1.947.864 1.313 0 2.038-.704 2.038-1.826v-1.1h-.039c-.457.871-1.373 1.428-2.526 1.428-2.015 0-3.344-1.58-3.344-4.084v-.008c0-2.52 1.343-4.1 3.383-4.1 1.13 0 2.016.612 2.49 1.519h.039V4.135H85v7.81c0 1.833-1.42 3.055-3.687 3.055-2.063 0-3.367-.954-3.612-2.184l-.003.003zm5.642-4.704v-.008c0-1.649-.847-2.71-2.098-2.71-1.252 0-2.124 1.053-2.124 2.71v.008c0 1.68.816 2.72 2.124 2.72 1.306 0 2.098-1.062 2.098-2.72zm2.83.07v-.009c0-2.512 1.45-4.191 3.703-4.191 2.252 0 3.634 1.618 3.634 4.031v.557h-5.689c.03 1.52.863 2.405 2.176 2.405.976 0 1.627-.505 1.834-1.106l.022-.06h1.566l-.017.082c-.259 1.274-1.497 2.435-3.444 2.435-2.36 0-3.786-1.61-3.786-4.145zm1.67-.778h4.032c-.138-1.39-.916-2.068-1.994-2.068-1.078 0-1.894.725-2.038 2.068zm6.924-3.268h1.65v1.213h.038c.42-.816 1.244-1.367 2.46-1.367 1.765 0 2.779 1.139 2.779 2.986v5.2h-1.657V7.285c0-1.205-.565-1.886-1.71-1.886-1.144 0-1.908.841-1.908 2.093v4.68h-1.649V4.138h-.003zm8.061 4.01v-.009c0-2.542 1.497-4.153 3.786-4.153 2.068 0 3.32 1.33 3.458 2.84l.008.053h-1.572l-.016-.06c-.177-.787-.786-1.451-1.864-1.451-1.283 0-2.115 1.07-2.115 2.788v.008c0 1.757.846 2.788 2.123 2.788 1.015 0 1.665-.587 1.864-1.459l.008-.06h1.589l-.009.052c-.176 1.61-1.519 2.849-3.452 2.849-2.344 0-3.811-1.61-3.811-4.184l.003-.002zm8.297.038v-.008c0-2.512 1.451-4.192 3.703-4.192 2.253 0 3.635 1.62 3.635 4.032v.557h-5.689c.03 1.52.863 2.405 2.176 2.405.976 0 1.627-.505 1.834-1.106l.022-.06h1.566l-.017.082c-.259 1.274-1.497 2.435-3.444 2.435-2.36 0-3.786-1.61-3.786-4.145zm1.671-.777h4.032c-.138-1.39-.916-2.069-1.994-2.069-1.078 0-1.894.726-2.038 2.069zm6.621 3.88a.992.992 0 0 1 1.007-1.002c.562 0 1 .436 1 1.001a.99.99 0 0 1-1 1.001 1 1 0 0 1-1.007-1z" fill="#000"/></mask><g mask="url(#a)"><path fill="url(#paint0_linear_4014_66)" d="M0 0H124V17H0z"/></g><defs><linearGradient id="paint0_linear_4014_66" y1="17" x2="124.263" y2="10.8" gradientUnits="userSpaceOnUse"><stop stop-color="#0090F7"/><stop offset=".39" stop-color="#E24ECC"/><stop offset="1" stop-color="#F45500"/></linearGradient></defs></svg>