<svg fill="none" viewBox="0 0 308 39" xmlns="http://www.w3.org/2000/svg" xmlns:xlink="http://www.w3.org/1999/xlink"><linearGradient id="a" gradientUnits="userSpaceOnUse" x1="164.936" x2="170.676" y1=".953" y2="8.001"><stop offset="0" stop-color="#2787b0"/><stop offset="1" stop-color="#1ce09c"/></linearGradient><linearGradient id="b"><stop offset=".219" stop-color="#2a53b7"/><stop offset=".555" stop-color="#2375fa"/></linearGradient><linearGradient id="c" gradientUnits="userSpaceOnUse" x1="181.527" x2="191.71" xlink:href="#b" y1="25.522" y2="35.48"/><linearGradient id="d" gradientUnits="userSpaceOnUse" x1="172.863" x2="158.109" y1="31.692" y2="10.922"><stop offset=".097" stop-color="#18ff95"/><stop offset=".351" stop-color="#28b3ee"/><stop offset=".522" stop-color="#2c9fff"/><stop offset=".769" stop-color="#2f76ff"/></linearGradient><linearGradient id="e" gradientUnits="userSpaceOnUse" x1="190.43" x2="171.104" xlink:href="#b" y1="4" y2="33.41"/><path d="m12.06 29.93c-1.74 0-3.35-.32-4.82-.95-1.47-.64-2.75-1.5-3.82-2.58a11.665 11.665 0 0 1 -2.51-3.79c-.6-1.44-.91-2.98-.91-4.61s.3-3.21.91-4.66c.6-1.45 1.44-2.72 2.51-3.79s2.34-1.92 3.82-2.55c1.47-.63 3.08-.94 4.82-.94 1.15 0 2.24.14 3.28.43s2 .69 2.88 1.21 1.68 1.15 2.39 1.88 1.32 1.54 1.83 2.43l-2.67 1.62c-.79-1.44-1.84-2.57-3.15-3.39-1.32-.82-2.83-1.23-4.55-1.23-1.32 0-2.52.24-3.61.72a8.963 8.963 0 0 0 -2.83 1.94 8.76 8.76 0 0 0 -1.85 2.85c-.44 1.08-.65 2.24-.65 3.47s.22 2.39.67 3.47a9.097 9.097 0 0 0 1.85 2.85c.78.82 1.72 1.46 2.82 1.93 1.09.47 2.3.7 3.61.7 1.19 0 2.26-.17 3.21-.52s1.78-.83 2.48-1.45c.7-.61 1.27-1.35 1.72-2.21s.75-1.8.92-2.82h-8.72v-2.93h11.93v1.08c0 1.59-.26 3.1-.78 4.53s-1.28 2.69-2.28 3.77-2.21 1.94-3.64 2.58-3.05.95-4.85.95zm23.58.06c-1.29 0-2.52-.24-3.68-.73a9.365 9.365 0 0 1 -3.02-2.02 9.475 9.475 0 0 1 -2.04-3.07c-.5-1.19-.75-2.47-.75-3.85s.24-2.69.73-3.87 1.16-2.2 2.02-3.07 1.87-1.55 3.02-2.04c1.16-.49 2.39-.73 3.71-.73.66 0 1.31.08 1.96.24s1.27.39 1.88.68c.6.3 1.16.66 1.67 1.08s.95.91 1.34 1.46v-3.09h2.99v18.62h-2.99v-3.15c-.38.55-.83 1.05-1.34 1.5s-1.07.82-1.67 1.11c-.6.3-1.24.53-1.89.68-.66.16-1.3.24-1.94.24zm.29-2.8c.95 0 1.85-.18 2.67-.54.83-.36 1.54-.85 2.15-1.46.6-.61 1.08-1.35 1.43-2.2s.52-1.75.52-2.7-.18-1.85-.52-2.69c-.35-.84-.83-1.57-1.43-2.2s-1.32-1.12-2.15-1.48-1.72-.54-2.67-.54-1.81.18-2.63.54-1.53.85-2.13 1.48-1.08 1.36-1.43 2.2-.53 1.73-.53 2.69.18 1.86.53 2.7c.35.85.83 1.58 1.43 2.2s1.32 1.1 2.13 1.46c.82.36 1.69.54 2.63.54zm13.97-21.13h3.05v23.55h-3.05zm15.59 23.93c-1.29 0-2.52-.24-3.68-.73a9.365 9.365 0 0 1 -3.02-2.02 9.475 9.475 0 0 1 -2.04-3.07c-.5-1.19-.75-2.47-.75-3.85s.24-2.69.73-3.87 1.16-2.2 2.02-3.07 1.87-1.55 3.02-2.04c1.16-.49 2.39-.73 3.71-.73.66 0 1.31.08 1.96.24s1.27.39 1.88.68c.6.3 1.16.66 1.67 1.08s.95.91 1.34 1.46v-3.09h2.99v18.62h-2.99v-3.15c-.38.55-.83 1.05-1.34 1.5s-1.07.82-1.67 1.11c-.6.3-1.24.53-1.89.68-.66.16-1.3.24-1.94.24zm.29-2.8c.95 0 1.85-.18 2.67-.54.83-.36 1.54-.85 2.15-1.46.6-.61 1.08-1.35 1.43-2.2s.52-1.75.52-2.7-.18-1.85-.52-2.69c-.35-.84-.83-1.57-1.43-2.2s-1.32-1.12-2.15-1.48-1.72-.54-2.67-.54-1.81.18-2.63.54-1.53.85-2.13 1.48-1.08 1.36-1.43 2.2-.53 1.73-.53 2.69.18 1.86.53 2.7c.35.85.83 1.58 1.43 2.2s1.32 1.1 2.13 1.46c.82.36 1.69.54 2.63.54zm19.15-7.06-7.03-9.13h3.69l5.22 6.9 5.22-6.9h3.63l-7.07 9.13 7.41 9.48h-3.72l-5.54-7.26-5.44 7.26h-3.72zm19.99 8.49-8.02-17.63h3.31l6.27 14.1 5.82-14.1h3.25l-11.65 27.21h-3.18zm27.56-22.24h3.21l8.59 23.23h-3.21l-1.97-5.31h-10.06l-1.94 5.31h-3.25l8.62-23.23zm-2.36 14.95h7.89l-3.95-10.72-3.95 10.72zm17.5-14.95h3.09v23.23h-3.09zm49.73.06c0-.64.2-1.15.59-1.54s.92-.59 1.58-.59c.7 0 1.24.2 1.62.59s.57.91.57 1.54-.19 1.18-.57 1.58c-.38.39-.92.59-1.62.59s-1.21-.2-1.59-.59-.57-.92-.57-1.58zm.64 4.55h3.06v18.62h-3.06zm14.44 19c-1.74 0-3.27-.34-4.58-1.02a8.953 8.953 0 0 1 -3.25-2.83l2.58-1.69a6.72 6.72 0 0 0 2.26 2.08c.91.52 1.94.78 3.09.78 1.38 0 2.41-.31 3.1-.92s1.03-1.34 1.03-2.16c0-.47-.14-.85-.41-1.16-.28-.31-.65-.56-1.11-.76s-.99-.37-1.58-.51c-.58-.14-1.19-.28-1.83-.43-.76-.19-1.52-.4-2.28-.64-.75-.23-1.42-.55-2-.95s-1.06-.91-1.43-1.51-.56-1.36-.56-2.28c0-.7.16-1.38.48-2.04s.77-1.24 1.37-1.73c.59-.5 1.31-.9 2.15-1.19.84-.3 1.79-.44 2.85-.44 1.51 0 2.88.27 4.12.81s2.23 1.3 2.98 2.28l-2.39 1.65a6.196 6.196 0 0 0 -2.02-1.59c-.77-.38-1.67-.57-2.69-.57-1.25 0-2.2.27-2.85.81s-.97 1.19-.97 1.96c0 .45.13.82.38 1.11.25.3.59.55 1.02.76.42.21.93.39 1.51.54s1.21.3 1.89.45c.74.19 1.5.4 2.26.64.76.23 1.45.55 2.05.95s1.1.91 1.48 1.51.57 1.37.57 2.31c0 .62-.14 1.26-.41 1.94-.28.68-.71 1.31-1.29 1.88s-1.33 1.04-2.24 1.42c-.91.37-2 .56-3.28.56zm19.83-23.93h2.99v7.73c.66-.95 1.52-1.72 2.59-2.31s2.31-.88 3.71-.88c1.21 0 2.31.19 3.29.57.99.38 1.82.94 2.51 1.67s1.22 1.62 1.59 2.66.56 2.22.56 3.53v10.57h-3.09v-10.41c0-1.78-.46-3.21-1.38-4.28s-2.28-1.61-4.06-1.61c-.81 0-1.55.15-2.24.45s-1.29.71-1.8 1.24-.91 1.16-1.19 1.89c-.29.73-.43 1.53-.43 2.4v10.31h-3.05zm30.68 23.93c-1.49 0-2.83-.24-4.04-.73s-2.24-1.16-3.1-2.02a8.963 8.963 0 0 1 -1.99-3.04c-.47-1.17-.7-2.43-.7-3.79s.24-2.67.73-3.87 1.16-2.24 2.02-3.12a9.24 9.24 0 0 1 3.07-2.07c1.19-.5 2.47-.75 3.85-.75s2.62.23 3.79.68c1.17.46 2.17 1.1 3.02 1.94s1.52 1.84 2 2.99c.49 1.16.73 2.43.73 3.84v1.27h-16.26c.11.89.34 1.7.72 2.42.37.72.86 1.35 1.46 1.88s1.3.94 2.1 1.23 1.66.43 2.59.43c1.48 0 2.75-.36 3.8-1.07s1.85-1.67 2.4-2.88l2.58 1.37c-.85 1.65-1.99 2.95-3.44 3.88-1.44.93-3.23 1.4-5.35 1.4zm-.16-16.67c-.83 0-1.6.13-2.32.4s-1.37.63-1.94 1.1-1.06 1.03-1.45 1.69-.67 1.37-.84 2.13h13.02c-.28-1.65-.98-2.95-2.1-3.9s-2.58-1.42-4.36-1.42zm13.27-2.33h2.99v2.67c.89-1.8 2.46-2.7 4.71-2.7.81 0 1.5.1 2.07.29s1.09.41 1.56.67l-1.27 2.83a7.41 7.41 0 0 0 -1.11-.59c-.38-.16-.95-.24-1.72-.24-1.25 0-2.26.42-3.04 1.26s-1.16 2.15-1.16 3.93v5.41c0 1.51.01 3.2.03 5.09h-3.06zm21.7 19c-1.49 0-2.83-.24-4.04-.73s-2.24-1.16-3.1-2.02a8.963 8.963 0 0 1 -1.99-3.04c-.47-1.17-.7-2.43-.7-3.79s.24-2.67.73-3.87 1.16-2.24 2.02-3.12a9.24 9.24 0 0 1 3.07-2.07c1.19-.5 2.47-.75 3.85-.75s2.62.23 3.79.68c1.17.46 2.17 1.1 3.02 1.94s1.52 1.84 2 2.99c.49 1.16.73 2.43.73 3.84v1.27h-16.26c.11.89.34 1.7.72 2.42.37.72.86 1.35 1.46 1.88s1.3.94 2.1 1.23 1.66.43 2.59.43c1.48 0 2.75-.36 3.8-1.07s1.85-1.67 2.4-2.88l2.58 1.37c-.85 1.65-1.99 2.95-3.44 3.88-1.44.93-3.23 1.4-5.35 1.4zm-.16-16.67c-.83 0-1.6.13-2.32.4s-1.37.63-1.94 1.1-1.06 1.03-1.45 1.69-.67 1.37-.84 2.13h13.02c-.28-1.65-.98-2.95-2.1-3.9-1.12-.94-2.58-1.42-4.36-1.42z" fill="#000"/><path d="m166.395 3.025 1.11-2.83a.358.358 0 0 1 .64 0l1.11 2.83 2.19 1.11c.26.13.26.51 0 .65l-2.19 1.11-1.11 2.83c-.13.26-.51.26-.65 0l-1.11-2.83-2.19-1.11c-.26-.13-.26-.51 0-.65l2.19-1.11z" fill="url(#a)"/><path d="m185.385 30.025 1.11-2.83c.13-.26.51-.26.65 0l1.11 2.83 2.19 1.11c.26.13.26.51 0 .65l-2.19 1.11-1.11 2.83c-.13.26-.51.26-.65 0l-1.11-2.83-2.19-1.11c-.26-.13-.26-.51 0-.65z" fill="url(#c)"/><path d="m165.763 11.45c.3-.6 1.13-.6 1.43 0l1.01 2.63-.811.41c-2.81 1.48-2.27 4.24-.06 5.22l.06.03 5.44 2.77.051.14-3.241 1.68-2.459 6.39c-.3.6-1.131.6-1.431 0l-2.459-6.39-4.851-2.51c-.589-.3-.589-1.16 0-1.46l4.851-2.51 2.459-6.39z" fill="url(#d)"/><path d="m183.22 13.14-3.35-8.54c-.4-.8-1.54-.8-1.95 0l-3.35 8.54-6.61 3.36c-.8.41-.8 1.55 0 1.95l6.61 3.36 3.35 8.54c.4.8 1.54.8 1.95 0l3.35-8.54 6.61-3.36c.8-.41.8-1.55 0-1.95z" fill="url(#e)"/></svg>